<svg viewBox="0 0 100 100" xmlns="http://www.w3.org/2000/svg">
  <rect x="4" y="4" width="92" height="92" rx="20" fill="#bd4e2a"/>
  <defs>
    <clipPath id="arch">
      <path d="M20,88 L20,55 C20,30 32,14 50,14 C68,14 80,30 80,55 L80,88 Z"/>
    </clipPath>
  </defs>
  <g clip-path="url(#arch)">
    <rect x="10" y="10" width="80" height="80" fill="#fdf9f1"/>
    <rect x="10" y="24.6" width="80" height="10.5" fill="#8c3a22"/>
    <rect x="10" y="45.7" width="80" height="10.5" fill="#8c3a22"/>
    <rect x="10" y="66.9" width="80" height="10.5" fill="#8c3a22"/>
  </g>
  <path d="M20,88 L20,55 C20,30 32,14 50,14 C68,14 80,30 80,55 L80,88" fill="none" stroke="#2a2118" stroke-width="2.5" stroke-linecap="round"/>
  <path d="M40,88 L40,66 C40,56 44,49 50,49 C56,49 60,56 60,66 L60,88 Z" fill="#bd4e2a" stroke="#2a2118" stroke-width="2"/>
</svg>
